<?xml version="1.0" encoding="utf-8"?>
<svg version="1.0" width="164.000000pt" height="42.000000pt" viewBox="0 -1.696 195.935 43.696" preserveAspectRatio="xMidYMid meet" xmlns="http://www.w3.org/2000/svg">
  <g transform="matrix(0.097358, 0, 0, -0.116005, 21.476902, 46.875938)" fill="#000000" stroke="none" style="">
    <path d="M 529.382 235.566 C 529.382 156.566 527.158 103.532 540.437 103.532 C 552.61 103.532 557.96 121 557.96 150 C 557.96 189 602.55 202.403 628.847 177.064 C 651.86 154.889 680.632 79.876 680.632 111.876 C 680.632 144.876 680.127 308.631 617.05 314.631 C 615.989 330.545 540.924 317.432 542.317 296.532 L 529.382 235.566 Z M 626.377 244.837 C 636.337 223.837 615.504 210 584.519 210 C 562.387 210 560.732 220.544 560.732 245.544 C 560.732 272.544 565.9 282.935 595.779 282.935 C 615.697 282.935 623.058 253.837 626.377 244.837 Z" style="fill: rgb(41, 22, 111);"/>
    <path d="M 894.525 286.508 C 866.525 255.508 881.525 223.508 931.525 206.508 C 966.525 194.508 974.525 186.508 974.525 166.508 C 974.525 146.508 960.209 157.139 936.209 155.139 C 917.209 152.139 915.221 146.052 906.221 158.052 C 899.221 168.052 886.525 166.508 882.525 162.508 C 872.525 152.508 916.525 116.508 938.525 116.508 C 970.525 116.508 1000.525 146.508 997.525 174.508 C 995.525 195.508 993.84 207.28 957.84 220.28 C 921.84 233.28 913.764 240.356 913.764 259.356 C 913.764 278.356 925.308 271.42 942.764 277.116 C 960.927 283.042 965.525 282.508 971.525 272.508 C 976.525 263.508 985.525 258.508 990.525 262.508 C 1007.525 272.508 968.525 306.508 939.525 306.508 C 924.525 306.508 904.525 297.508 894.525 286.508 Z" style="fill: rgb(41, 22, 111);"/>
    <path d="M 698.57 240.512 C 700.57 185.512 696.254 115 708.254 115 C 719.254 115 737.327 140.134 740.113 180.087 C 741.309 197.233 757.191 212.656 783.641 207.997 C 794.752 206.039 796.315 198.255 817.797 189.237 C 827.979 184.963 833.585 135.232 842.039 130.8 C 858.774 122.028 862.402 113.6 865.671 117.05 C 886.417 138.943 863.782 176.92 856.081 213.116 C 846.46 258.339 847.194 300.782 835.721 305.601 C 819.606 312.369 811.421 293.015 784.708 261.463 C 778.973 254.689 780.316 248.234 771.679 240.369 C 776.139 240.74 758.372 246.525 752.547 256.151 C 742.341 273.014 738.196 297.839 735.299 298.577 C 714.768 304.894 687.73 243.847 698.57 240.512 Z" style="fill: rgb(41, 22, 111);"/>
    <path d="M 1065.092 294.674 C 1065.092 294.293 1050.234 257.809 1039.392 211.304 C 1028.549 164.991 1029.413 130.052 1029.006 128.145 C 1028.329 125.096 1021.095 120.202 1071.377 120.583 L 1124.505 121.154 L 1128.978 139.832 L 1117.321 153.616 L 1099.568 158.32 C 1081 158.32 1071.868 160.235 1071.868 160.998 C 1071.868 161.951 1072.422 168.511 1074.726 178.041 L 1083.631 193.079 L 1104.853 196.439 L 1135.619 196.439 L 1138.601 210.542 C 1140.363 218.356 1129.356 219.932 1129.763 221.648 C 1130.576 224.316 1140.227 230.745 1112.579 230.745 C 1088.454 230.745 1086.652 233.333 1087.059 235.239 C 1087.466 236.382 1084.388 241.228 1086.014 248.279 L 1102.572 261.239 L 1122.337 262.964 L 1154.334 262.865 L 1171.568 272.626 C 1173.737 282.156 1169.451 296.69 1169.451 297.071 C 1169.451 297.262 1139.956 297.452 1111.223 297.452 C 1082.491 297.452 1065.092 295.055 1065.092 294.674 Z" style="fill: rgb(0, 146, 65);"/>
    <path d="M 1462.588 226.949 C 1462.588 163.339 1460.852 120.637 1471.221 120.637 C 1480.727 120.637 1484.905 134.702 1484.905 158.052 C 1484.905 189.455 1519.724 200.246 1540.259 179.844 C 1558.23 161.989 1580.698 101.589 1580.698 127.355 C 1580.698 153.927 1580.303 285.78 1531.047 290.61 C 1530.219 303.425 1471.601 292.866 1472.689 276.037 L 1462.588 226.949 Z M 1538.331 234.414 C 1546.108 217.505 1529.84 206.363 1505.644 206.363 C 1488.362 206.363 1487.069 214.854 1487.069 234.983 C 1487.069 256.723 1491.105 265.09 1514.437 265.09 C 1529.991 265.09 1535.739 241.661 1538.331 234.414 Z" style="fill: rgb(0, 146, 65);"/>
  </g>
  <g transform="matrix(0.004921, 0, 0, -0.005022, -0.111053, 41.131485)" fill="#000000" stroke="none" style="">
    <path d="M 6206.161 8324.155 C 6072.472 8228.573 5868.596 8085.2 5754.962 8004.826 L 5546.63 7860.367 L 5653.581 7546.468 C 5713.741 7374.855 5790.612 7142.419 5826.262 7030.544 L 5890.878 6826.347 L 6451.255 6826.347 L 7011.634 6826.347 L 7062.88 6987.099 C 7090.732 7075.077 7168.718 7307.514 7235.562 7504.108 C 7302.406 7700.702 7356.995 7862.539 7354.767 7863.626 C 7311.319 7890.779 6968.185 8131.906 6747.599 8289.398 C 6586.058 8404.531 6453.484 8499.026 6451.255 8499.026 C 6450.141 8499.026 6339.848 8420.823 6206.161 8324.155 Z" style="fill: rgb(0, 146, 65);"/>
    <path d="M 4099.452 7719.167 L 3419.869 7716.995 L 3365.28 7539.951 C 3335.2 7443.284 3240.504 7158.711 3155.834 6908.895 C 3071.165 6657.994 3003.207 6452.71 3005.434 6450.538 C 3006.549 6449.452 3143.579 6353.87 3308.462 6238.738 C 3474.458 6123.605 3716.212 5951.992 3847.673 5856.411 C 3979.133 5761.916 4091.654 5681.54 4099.452 5679.367 C 4106.136 5676.109 4164.068 5713.038 4228.685 5759.743 C 4416.963 5897.685 4786.833 6160.534 4996.279 6304.992 C 5103.23 6377.765 5195.698 6441.848 5200.154 6446.192 C 5205.724 6450.538 5150.021 6629.754 5076.492 6843.726 C 5002.964 7058.784 4909.382 7341.184 4868.161 7472.61 C 4826.94 7604.035 4790.176 7713.736 4785.72 7716.995 C 4782.377 7720.253 4473.779 7721.339 4099.452 7719.167 Z" style="fill: rgb(0, 146, 65);"/>
    <path d="M 8010.955 7492.16 C 7989.787 7422.646 7771.429 6773.126 7764.745 6755.747 C 7761.403 6750.316 7840.502 6688.406 7939.654 6619.978 C 8038.806 6551.55 8189.206 6445.107 8274.99 6383.196 C 8359.659 6321.285 8438.759 6265.891 8449.899 6259.374 C 8466.61 6248.512 8498.918 6268.063 8657.116 6382.11 C 8760.724 6457.054 8918.923 6568.928 9008.048 6630.839 L 9170.702 6743.799 L 9096.059 6962.117 C 9055.953 7081.594 8994.68 7264.068 8962.372 7367.253 L 8903.325 7554.071 L 8466.61 7554.071 L 8031.008 7554.071 L 8010.955 7492.16 Z" style="fill: rgb(0, 146, 65);"/>
    <path d="M 9218.608 6026.938 C 9073.778 5924.838 8969.056 5842.291 8969.056 5833.602 C 8970.169 5823.826 9012.505 5692.402 9063.752 5539.253 L 9156.22 5262.284 L 9470.388 5262.284 L 9784.555 5262.284 L 9873.681 5531.651 C 9922.7 5679.367 9966.149 5809.706 9969.492 5822.74 C 9976.176 5842.291 9946.095 5867.272 9756.704 6001.956 C 9635.27 6086.676 9521.634 6168.138 9502.695 6181.171 L 9469.274 6205.067 L 9218.608 6026.938 Z" style="fill: rgb(0, 146, 65);"/>
    <path d="M 1452.42 5630.491 C 1063.609 5355.693 682.597 5085.24 604.612 5030.933 C 526.627 4975.539 463.125 4926.662 462.011 4921.231 C 462.011 4915.8 528.855 4710.517 611.296 4465.046 C 748.327 4056.652 968.913 3396.269 1069.18 3093.232 L 1109.287 2970.497 L 2160.969 2970.497 C 3151.378 2970.497 3211.537 2971.583 3217.108 2990.047 C 3219.336 2999.823 3322.944 3311.549 3447.721 3681.928 C 3796.425 4725.724 3862.155 4926.662 3857.699 4929.92 C 3834.304 4948.386 2181.022 6117.088 2172.11 6122.519 C 2163.197 6127.949 1881.337 5934.614 1452.42 5630.491 Z" style="fill: rgb(0, 146, 65);"/>
    <path d="M 6684.096 4447.668 C 6443.458 4410.739 6274.119 4259.763 6273.005 4081.634 C 6271.89 4030.584 6277.461 4007.775 6295.286 3983.879 C 6336.507 3928.485 6413.377 3888.298 6548.18 3850.283 C 6745.37 3795.974 6778.793 3749.27 6686.325 3660.205 C 6631.735 3605.898 6562.662 3588.519 6489.134 3610.242 C 6435.659 3625.448 6411.149 3662.378 6411.149 3725.374 L 6411.149 3775.338 L 6303.084 3768.821 C 6242.925 3765.563 6172.738 3760.132 6147.114 3756.874 L 6099.21 3751.443 L 6099.21 3666.723 C 6099.21 3547.245 6127.061 3498.368 6216.187 3453.836 C 6278.575 3423.423 6291.944 3421.251 6433.43 3417.993 C 6601.655 3412.562 6680.755 3426.682 6789.933 3477.731 C 6866.804 3513.574 6988.237 3630.879 7023.888 3703.652 C 7051.74 3759.045 7065.109 3860.058 7052.854 3908.935 C 7032.8 3987.138 6935.877 4043.618 6732.001 4094.667 C 6597.199 4128.338 6568.234 4148.975 6584.944 4194.594 C 6590.514 4210.886 6612.795 4235.868 6633.963 4249.988 C 6667.386 4271.71 6682.982 4274.969 6738.686 4271.71 C 6815.557 4266.279 6845.637 4240.212 6845.637 4178.301 L 6845.637 4140.286 L 6921.393 4146.803 C 6962.615 4151.148 7029.459 4154.406 7070.679 4154.406 L 7144.207 4154.406 L 7152.006 4197.852 C 7170.945 4305.381 7114.128 4396.619 7008.291 4430.29 C 6941.447 4452.012 6774.337 4460.701 6684.096 4447.668 Z" style="fill: rgb(41, 22, 111);"/>
    <path d="M 4116.164 4432.461 C 4116.164 4430.29 4043.748 4210.886 3954.622 3945.864 C 3865.498 3681.928 3789.741 3456.008 3786.398 3445.147 C 3780.828 3427.768 3804.224 3426.682 4217.543 3428.854 L 4654.26 3432.113 L 4691.024 3538.556 L 4727.788 3643.913 L 4449.27 3643.913 C 4296.643 3643.913 4171.867 3647.172 4171.867 3651.516 C 4171.867 3656.947 4187.464 3705.823 4206.403 3760.132 L 4240.939 3861.144 L 4492.719 3861.144 L 4745.613 3861.144 L 4770.123 3941.519 C 4784.606 3986.052 4799.088 4029.498 4802.431 4039.274 C 4809.115 4054.479 4783.492 4056.652 4556.221 4056.652 C 4357.917 4056.652 4304.442 4059.91 4307.783 4070.772 C 4311.125 4077.289 4324.494 4116.39 4337.863 4156.578 L 4363.487 4230.437 L 4636.434 4232.609 L 4910.496 4235.868 L 4941.69 4333.621 C 4959.515 4387.93 4973.997 4432.461 4973.997 4434.634 C 4973.997 4435.72 4781.263 4436.806 4545.08 4436.806 C 4308.898 4436.806 4116.164 4434.634 4116.164 4432.461 Z" style="fill: rgb(41, 22, 111);"/>
    <path d="M 5012.99 3945.864 C 4922.751 3675.412 4845.88 3447.319 4842.538 3439.716 C 4839.195 3428.854 4869.275 3426.682 4986.253 3428.854 L 5134.424 3432.113 L 5225.778 3701.479 C 5275.911 3849.196 5320.474 3971.932 5324.93 3973.018 C 5329.387 3974.104 5377.291 3853.541 5430.766 3703.652 L 5528.805 3432.113 L 5678.091 3428.854 L 5826.262 3425.596 L 5981.117 3885.039 C 6065.787 4138.114 6142.658 4365.12 6150.456 4391.188 L 6164.939 4436.806 L 6017.883 4436.806 L 5870.825 4436.806 L 5781.699 4168.526 C 5732.68 4021.895 5687.004 3899.159 5681.432 3896.987 C 5674.748 3895.901 5635.756 3990.396 5593.421 4108.787 C 5551.086 4226.092 5506.523 4348.828 5495.383 4380.326 L 5474.216 4436.806 L 5326.044 4436.806 L 5178.987 4436.806 L 5012.99 3945.864 Z" style="fill: rgb(41, 22, 111);"/>
    <path d="M 7371.478 3938.261 C 7174.288 3663.463 7012.748 3436.458 7012.748 3433.199 C 7012.748 3429.94 7082.934 3426.682 7167.603 3426.682 L 7322.459 3426.682 L 7379.277 3513.574 L 7436.094 3600.467 L 7616.574 3598.294 L 7798.167 3595.036 L 7801.509 3511.402 L 7804.852 3426.682 L 7965.278 3426.682 C 8111.221 3426.682 8126.818 3428.854 8126.818 3446.233 C 8126.818 3456.008 8119.02 3606.983 8110.107 3779.683 C 8102.308 3953.467 8091.168 4171.784 8086.712 4266.279 L 8078.913 4436.806 L 7905.118 4436.806 L 7731.323 4436.806 L 7371.478 3938.261 Z M 7810.422 3820.956 C 7805.966 3811.181 7773.658 3806.836 7692.331 3806.836 C 7631.057 3806.836 7580.924 3810.094 7580.924 3814.439 C 7580.924 3822.043 7656.681 3943.692 7748.034 4078.375 L 7809.308 4170.698 L 7812.651 4002.344 C 7813.764 3910.021 7812.651 3828.559 7810.422 3820.956 Z" style="fill: rgb(41, 22, 111);"/>
    <path d="M 8578.017 4423.772 C 8571.332 4405.308 8366.343 3790.543 8300.614 3593.95 C 8272.761 3510.316 8249.366 3437.543 8249.366 3434.285 C 8249.366 3429.94 8318.439 3426.682 8403.108 3426.682 L 8555.736 3426.682 L 8625.922 3633.052 L 8696.108 3839.421 L 8875.474 3839.421 L 9053.725 3839.421 L 9045.926 3805.75 C 9041.47 3788.372 9011.39 3694.963 8979.082 3599.381 L 8918.923 3426.682 L 9077.12 3426.682 L 9235.319 3426.682 L 9344.498 3755.787 C 9404.657 3936.088 9480.414 4163.095 9513.837 4260.849 L 9572.882 4436.806 L 9414.684 4436.806 L 9257.6 4436.806 L 9198.554 4257.59 L 9139.508 4078.375 L 8962.372 4078.375 C 8824.227 4078.375 8784.12 4081.634 8784.12 4092.495 C 8784.12 4100.098 8809.743 4179.388 8839.823 4268.452 C 8871.017 4357.517 8895.527 4432.461 8895.527 4433.548 C 8895.527 4435.72 8825.341 4436.806 8739.557 4436.806 C 8623.694 4436.806 8581.359 4433.548 8578.017 4423.772 Z" style="fill: rgb(41, 22, 111);"/>
    <path d="M 11335.342 3860.058 C 11335.342 3550.503 11215.023 3135.592 11031.201 2813.004 C 10995.551 2751.093 10981.068 2714.164 10989.981 2711.991 C 11015.603 2703.302 11163.775 2602.291 11189.399 2575.136 C 11204.996 2559.93 11220.593 2546.896 11225.049 2546.896 C 11249.559 2546.896 11344.255 2880.346 11373.22 3068.251 C 11398.844 3237.691 11406.643 3446.233 11392.159 3589.605 C 11378.79 3723.203 11346.483 3939.347 11339.799 3946.95 C 11337.57 3949.123 11335.342 3910.021 11335.342 3860.058 Z" style="fill: rgb(41, 22, 111);"/>
    <path d="M 1396.717 2594.687 C 1567.169 2147.191 1813.379 1788.76 2206.646 1417.295 C 2973.126 692.829 4123.961 198.629 5419.626 37.878 C 5704.829 3.122 5844.087 -6.654 6188.335 -13.171 C 7426.067 -35.98 8599.184 236.645 9552.828 771.033 C 9714.37 861.183 9965.035 1021.934 9965.035 1034.969 C 9965.035 1039.314 9950.552 1052.347 9931.613 1062.123 C 9880.366 1091.449 9764.503 1208.754 9705.457 1289.129 C 9646.41 1369.505 9582.909 1495.499 9562.856 1572.615 L 9550.601 1623.665 L 6887.971 1623.665 L 4226.456 1623.665 L 4157.384 1669.283 C 4019.239 1759.434 3904.49 1843.068 3904.49 1852.843 C 3904.49 1858.274 4984.025 1862.619 6711.949 1862.619 L 9519.407 1862.619 L 9519.407 1893.031 C 9519.407 1909.323 9522.749 1933.219 9526.091 1947.339 L 9532.776 1971.234 L 6636.192 1971.234 L 3738.493 1971.234 L 3598.121 2102.659 C 3521.25 2175.431 3458.862 2238.428 3458.862 2243.859 C 3458.862 2249.29 4772.351 2253.635 6537.04 2253.635 L 9616.331 2253.635 L 9628.585 2280.788 C 9636.384 2295.995 9641.954 2311.201 9641.954 2313.373 C 9641.954 2316.631 8233.769 2318.804 6512.529 2318.804 L 3383.105 2318.804 L 3306.234 2414.386 C 3214.88 2526.26 3146.922 2617.496 3146.922 2627.271 C 3146.922 2630.531 4672.085 2633.789 6537.04 2633.789 C 9500.468 2633.789 9930.499 2635.961 9949.438 2650.082 C 9968.377 2664.202 9611.875 2665.287 6979.325 2666.373 C 5333.843 2666.373 3397.588 2669.631 2675.67 2673.977 L 1363.294 2680.493 L 1396.717 2594.687 Z M 2729.145 2271.013 C 2745.856 2259.066 2748.084 2252.548 2738.058 2240.601 C 2728.031 2228.653 2729.145 2223.222 2746.971 2212.361 C 2764.796 2201.499 2765.91 2196.068 2754.768 2177.604 C 2743.628 2161.311 2730.259 2156.966 2693.495 2158.053 C 2652.274 2160.226 2640.02 2154.795 2601.027 2117.866 C 2549.78 2070.075 2545.324 2054.868 2582.088 2063.557 C 2596.571 2067.902 2632.221 2061.385 2663.415 2049.437 C 2693.495 2038.575 2728.031 2025.542 2740.286 2021.197 C 2761.453 2013.594 2760.34 2012.508 2732.487 1997.302 C 2683.468 1972.321 2654.502 1915.84 2663.415 1861.532 L 2671.214 1815.914 L 2692.38 1844.154 C 2707.978 1865.877 2724.689 1873.48 2750.312 1873.48 C 2770.366 1873.48 2789.305 1870.222 2793.761 1866.963 C 2797.104 1863.705 2785.962 1840.895 2768.137 1815.914 C 2733.602 1765.951 2734.716 1744.228 2771.48 1750.745 C 2785.962 1754.003 2807.13 1746.4 2822.728 1733.366 C 2837.21 1720.332 2859.492 1710.557 2871.746 1710.557 C 2885.114 1710.557 2890.686 1705.126 2887.343 1695.35 C 2884.001 1687.748 2887.343 1681.23 2894.027 1681.23 C 2901.826 1681.23 2918.537 1680.145 2931.906 1680.145 L 2955.301 1677.972 L 2931.906 1623.665 L 2908.511 1569.357 L 2950.845 1528.083 L 2993.18 1487.895 L 2987.609 1534.599 L 2982.039 1580.219 L 3036.628 1580.219 C 3099.016 1580.219 3099.016 1579.132 3073.393 1494.412 C 3056.682 1437.932 3056.682 1435.759 3081.191 1410.778 C 3094.56 1396.658 3111.271 1384.71 3117.956 1384.71 C 3136.895 1384.71 3237.161 1511.79 3252.759 1556.323 C 3266.128 1594.339 3269.469 1595.425 3310.691 1592.166 C 3334.086 1591.079 3354.139 1587.821 3356.367 1585.65 C 3357.481 1584.563 3314.032 1529.169 3258.329 1462.914 C 3203.74 1396.658 3158.062 1332.575 3158.062 1320.627 C 3158.062 1290.215 3136.895 1292.387 3091.219 1324.972 C 3045.541 1357.557 3043.313 1357.557 3052.226 1330.403 C 3056.682 1318.455 3054.453 1308.679 3047.77 1308.679 C 3027.716 1308.679 2990.952 1354.298 2984.268 1389.055 C 2979.811 1410.778 2959.758 1436.846 2930.792 1460.741 C 2905.168 1481.379 2836.096 1553.065 2778.165 1620.406 C 2694.609 1718.16 2665.643 1744.228 2636.677 1749.659 C 2602.141 1756.175 2601.027 1758.348 2607.711 1793.105 C 2613.282 1822.431 2604.369 1847.412 2557.578 1935.391 C 2488.506 2064.644 2417.205 2262.324 2451.742 2228.653 C 2456.198 2224.308 2472.908 2229.739 2488.506 2238.428 C 2516.357 2254.721 2521.928 2254.721 2560.92 2238.428 C 2593.228 2225.395 2607.711 2224.308 2618.852 2232.997 C 2631.107 2242.773 2638.905 2241.686 2651.16 2231.911 C 2665.643 2219.964 2668.985 2223.222 2674.555 2252.548 C 2682.354 2289.477 2696.837 2293.822 2729.145 2271.013 Z M 2577.632 1798.535 C 2586.544 1793.105 2589.887 1781.157 2586.544 1772.468 C 2582.088 1761.606 2588.772 1752.917 2605.483 1746.4 C 2642.247 1734.452 2625.536 1688.834 2584.316 1688.834 C 2567.605 1688.834 2557.578 1693.179 2560.92 1698.61 C 2570.947 1713.815 2556.464 1743.141 2538.639 1743.141 C 2529.726 1743.141 2523.042 1754.003 2523.042 1768.123 C 2523.042 1807.225 2544.209 1819.172 2577.632 1798.535 Z M 3436.58 1519.394 C 3436.58 1517.221 3398.701 1465.086 3353.025 1404.261 C 3271.698 1296.732 3250.53 1244.596 3280.61 1227.218 C 3293.979 1218.529 3295.093 1189.203 3281.724 1189.203 C 3265.013 1189.203 3202.625 1251.114 3202.625 1267.406 C 3202.625 1276.095 3231.591 1323.886 3268.355 1371.677 C 3304.006 1420.554 3337.428 1477.034 3340.77 1496.585 C 3347.455 1530.255 3349.682 1531.341 3392.017 1528.083 C 3416.527 1525.91 3436.58 1521.566 3436.58 1519.394 Z M 9517.178 1458.569 C 9513.837 1450.966 9432.51 1407.519 9334.471 1362.987 L 9157.334 1281.526 L 7046.169 1278.267 C 5138.88 1276.095 4930.549 1277.181 4890.443 1293.474 C 4797.975 1329.317 4539.51 1453.138 4539.51 1462.914 C 4539.51 1467.258 5660.266 1471.603 7030.573 1471.603 C 9018.075 1471.603 9520.52 1468.345 9517.178 1458.569 Z M 3640.455 1297.818 C 3644.911 1282.612 3653.824 1277.181 3671.649 1278.267 C 3713.984 1283.698 3712.869 1244.596 3669.421 1209.839 C 3637.113 1184.858 3632.657 1173.996 3628.201 1114.258 C 3623.744 1058.863 3625.972 1046.916 3642.683 1041.485 C 3652.71 1037.141 3666.079 1024.107 3670.535 1011.074 C 3679.448 990.436 3680.561 990.436 3680.561 1018.676 C 3681.675 1054.519 3717.325 1091.449 3752.976 1091.449 C 3778.6 1091.449 3778.6 1090.363 3767.459 1041.485 C 3756.318 996.953 3757.432 989.35 3777.486 975.23 C 3796.425 962.196 3798.653 962.196 3803.11 979.574 C 3809.794 1012.159 3825.391 1024.107 3887.779 1042.572 C 3921.201 1051.261 3954.622 1062.123 3963.535 1064.294 C 3974.676 1069.725 3975.79 1053.434 3970.22 980.661 C 3963.535 913.319 3965.764 888.338 3976.904 880.734 C 3984.703 874.218 3995.844 859.012 4002.528 847.063 C 4013.669 828.599 4014.783 831.858 4015.897 869.873 C 4015.897 917.663 4027.038 932.87 4072.715 942.645 C 4100.566 949.163 4101.68 949.163 4096.11 892.682 C 4091.654 839.461 4093.882 834.03 4120.62 822.082 C 4137.33 815.565 4155.155 798.187 4160.727 785.153 C 4168.524 764.516 4170.753 769.947 4170.753 812.307 C 4171.867 861.183 4174.095 865.529 4210.86 880.734 C 4232.026 888.338 4250.966 895.941 4252.08 895.941 C 4254.308 895.941 4255.422 868.787 4255.422 834.03 C 4255.422 798.187 4260.993 771.033 4268.791 768.86 C 4286.616 762.343 4341.206 929.612 4336.749 979.574 C 4333.407 1016.503 4335.636 1019.763 4371.286 1028.452 C 4391.339 1033.883 4411.393 1034.969 4414.734 1031.71 C 4420.305 1027.365 4381.312 895.941 4353.461 824.254 C 4351.232 817.738 4382.426 800.359 4424.761 786.239 C 4491.605 763.43 4500.517 756.913 4506.088 727.587 C 4509.43 708.036 4521.685 690.658 4538.396 681.969 C 4553.993 675.451 4571.818 658.073 4579.617 645.039 C 4591.872 622.229 4591.872 625.488 4587.415 668.934 C 4581.845 721.07 4589.643 735.19 4637.548 748.223 C 4659.83 755.827 4662.058 752.569 4662.058 716.725 C 4662.058 664.589 4679.884 635.263 4711.078 635.263 C 4733.358 635.263 4738.929 645.039 4761.211 722.156 C 4776.807 777.55 4783.492 823.169 4779.036 844.891 C 4772.351 879.649 4774.579 881.821 4816.914 898.113 C 4842.538 907.889 4862.59 913.319 4862.59 910.061 C 4862.59 906.802 4844.765 840.547 4822.484 762.343 C 4801.317 683.054 4786.833 608.109 4790.176 595.076 C 4799.088 560.318 4776.807 554.888 4704.393 573.353 C 4648.69 587.473 4639.777 587.473 4605.24 570.094 L 4567.361 550.543 L 4556.221 582.042 C 4546.195 612.454 4532.826 618.971 4377.97 668.934 C 4218.657 721.07 4208.631 722.156 4176.323 706.95 C 4141.787 691.743 4140.673 691.743 4130.646 725.414 C 4125.076 748.223 4110.593 763.43 4092.767 769.947 C 4060.46 780.809 3992.501 768.86 4013.669 755.827 C 4034.836 742.793 4034.836 699.347 4012.554 685.227 C 3995.844 675.451 3990.273 676.538 3981.36 692.829 C 3973.563 705.863 3962.421 710.209 3947.939 705.863 C 3918.973 697.174 3891.121 750.396 3916.745 766.689 C 3941.254 781.894 3971.334 778.636 3971.334 760.171 C 3971.334 751.482 3975.79 743.879 3981.36 743.879 C 3986.931 743.879 3984.703 762.343 3974.676 785.153 C 3962.421 816.651 3947.939 830.771 3917.858 841.633 C 3894.463 850.322 3874.41 856.839 3871.068 855.753 C 3790.855 837.289 3781.942 838.374 3781.942 867.701 C 3781.942 908.974 3736.265 935.043 3689.474 919.836 C 3669.421 914.405 3662.736 908.974 3673.877 907.889 C 3698.386 906.802 3699.5 860.098 3674.991 840.547 C 3659.394 828.599 3654.938 829.685 3640.455 847.063 C 3632.657 859.012 3614.832 867.701 3603.691 865.529 C 3588.094 863.356 3580.295 869.873 3574.725 890.51 C 3566.927 923.094 3566.927 923.094 3601.463 932.87 C 3619.288 938.301 3625.972 936.129 3625.972 924.181 C 3625.972 915.492 3630.428 905.716 3634.885 902.458 C 3640.455 899.199 3641.57 914.405 3638.227 936.129 C 3632.657 971.972 3622.63 980.661 3542.416 1027.365 C 3493.397 1056.692 3449.949 1080.587 3445.493 1082.759 C 3439.922 1084.932 3445.493 1104.483 3455.519 1127.292 C 3470.002 1158.79 3484.485 1170.738 3516.794 1180.514 C 3540.189 1187.03 3559.128 1198.978 3559.128 1207.667 C 3559.128 1215.27 3566.927 1225.045 3575.839 1228.304 C 3589.208 1233.735 3591.436 1244.596 3585.865 1270.664 C 3579.182 1306.507 3582.523 1310.852 3627.086 1318.455 C 3631.542 1318.455 3637.113 1309.766 3640.455 1297.818 Z M 3915.631 1160.963 C 3915.631 1147.929 3923.43 1144.67 3942.368 1147.929 C 3963.535 1152.274 3970.22 1147.929 3974.676 1128.378 C 3976.904 1113.172 3971.334 1095.794 3960.194 1086.018 C 3941.254 1069.725 3939.026 1069.725 3923.43 1091.449 C 3914.517 1104.483 3901.148 1110.999 3890.007 1106.654 C 3878.867 1103.396 3867.725 1108.827 3861.042 1122.947 C 3844.33 1153.359 3845.444 1165.307 3868.839 1170.738 C 3905.604 1180.514 3915.631 1178.341 3915.631 1160.963 Z M 9207.467 1033.883 L 9268.741 901.372 L 9311.075 898.113 C 9363.437 893.769 9363.437 877.476 9312.19 856.839 C 9255.372 834.03 9231.977 852.494 9186.3 960.023 C 9165.132 1007.814 9133.938 1061.036 9117.227 1076.243 L 9087.147 1104.483 L 9109.428 1141.412 C 9121.683 1162.049 9135.052 1176.169 9138.395 1172.91 C 9142.851 1169.652 9172.931 1106.654 9207.467 1033.883 Z M 9102.744 983.919 C 9138.395 894.854 9164.019 848.15 9177.387 843.805 C 9208.581 836.202 9197.44 811.221 9152.877 788.411 C 9062.638 741.707 8617.009 597.248 8604.755 611.368 C 8600.299 615.713 8592.5 632.005 8589.157 649.383 C 8581.359 677.623 8582.474 678.709 8629.264 679.796 C 8671.599 679.796 8674.941 680.882 8651.545 690.658 C 8637.063 696.089 8609.211 714.553 8589.157 731.931 C 8554.621 761.258 8553.507 763.43 8569.105 792.756 L 8585.815 822.082 L 8622.58 787.325 L 8660.458 751.482 L 8728.416 769.947 C 8796.374 788.411 8797.489 788.411 8821.998 766.689 C 8855.421 736.276 8873.246 738.449 8873.246 771.033 C 8873.246 786.239 8888.843 827.513 8906.668 863.356 C 8940.09 927.439 8962.372 945.903 8962.372 910.061 C 8962.372 900.285 8982.425 874.218 9008.048 851.409 C 9048.155 815.565 9057.068 812.307 9080.463 822.082 C 9094.946 828.599 9107.201 837.289 9107.201 840.547 C 9107.201 863.356 9033.671 1014.332 9011.39 1037.141 L 8985.767 1064.294 L 9009.162 1100.138 C 9021.417 1119.689 9035.9 1132.723 9040.356 1127.292 C 9044.813 1122.947 9072.664 1057.778 9102.744 983.919 Z M 8476.636 1069.725 C 8459.925 1053.434 8145.757 987.178 7942.997 955.679 C 7307.976 860.098 6671.842 864.442 6049.077 967.627 C 5854.114 1000.212 5596.763 1056.692 5582.28 1070.812 C 5575.596 1076.243 6177.194 1080.587 7029.459 1080.587 C 7994.244 1080.587 8484.435 1077.329 8476.636 1069.725 Z M 4969.541 866.614 C 4955.059 820.996 4907.153 612.454 4907.153 595.076 C 4907.153 584.214 4920.522 565.749 4938.347 552.716 C 4955.059 539.682 4965.085 524.476 4960.629 520.131 C 4947.26 508.183 4862.59 536.423 4854.793 555.974 C 4850.336 565.749 4859.249 621.143 4872.618 679.796 C 4887.1 743.879 4894.899 801.445 4890.443 823.169 C 4883.758 855.753 4885.987 859.012 4920.522 869.873 C 4973.997 887.252 4976.226 887.252 4969.541 866.614 Z M 4650.917 825.341 C 4650.917 813.393 4656.487 812.307 4678.769 819.91 C 4703.279 828.599 4707.735 826.427 4713.305 803.618 C 4717.761 787.325 4714.419 768.86 4706.621 760.171 C 4694.366 744.965 4689.91 744.965 4672.085 761.258 C 4660.944 771.033 4644.233 776.463 4634.206 773.205 C 4624.179 768.86 4610.811 776.463 4598.556 793.842 C 4582.959 817.738 4582.959 823.169 4596.328 831.858 C 4620.837 847.063 4650.917 843.805 4650.917 825.341 Z M 7584.266 622.229 C 7599.863 502.753 7607.661 474.513 7626.6 458.22 C 7639.969 448.445 7660.022 439.756 7671.163 439.756 C 7696.787 439.756 7699.015 422.377 7674.506 413.687 C 7644.425 402.827 7584.266 406.085 7572.011 421.291 C 7565.326 428.894 7554.186 478.858 7547.501 532.078 C 7539.703 586.387 7525.22 646.125 7514.079 666.762 C 7495.14 704.778 7495.14 704.778 7524.106 734.103 C 7539.703 751.482 7556.414 764.516 7559.756 765.602 C 7563.099 765.602 7574.239 700.433 7584.266 622.229 Z M 8531.226 708.036 C 8553.507 677.623 8572.446 643.953 8572.446 635.263 C 8572.446 608.109 8475.523 454.962 8443.215 429.98 C 8393.081 390.878 8359.659 404.998 8405.336 445.187 C 8433.187 470.167 8505.602 584.214 8505.602 602.678 C 8505.602 610.282 8491.119 633.091 8472.18 653.729 C 8454.355 673.279 8438.759 696.089 8438.759 703.691 C 8438.759 719.983 8469.951 765.602 8481.093 764.516 C 8485.549 764.516 8507.83 739.534 8531.226 708.036 Z M 5709.285 735.19 C 5709.285 724.329 5701.486 659.159 5692.574 591.818 C 5683.661 523.389 5679.205 464.737 5683.661 460.393 C 5699.258 446.273 5776.129 436.497 5776.129 448.445 C 5776.129 474.513 5761.646 494.063 5741.593 494.063 C 5712.626 494.063 5714.855 507.098 5751.619 539.682 C 5786.156 572.267 5790.612 573.353 5877.509 571.18 C 5937.669 570.094 5939.897 569.008 5934.327 542.94 C 5932.098 527.734 5909.817 500.58 5886.422 482.116 C 5861.913 463.651 5845.201 444.1 5849.657 438.669 C 5853 433.238 5879.738 428.894 5909.817 428.894 L 5964.407 428.894 L 5972.205 489.718 C 5978.89 549.458 5974.434 636.349 5961.065 667.849 C 5956.608 678.709 5967.749 690.658 5994.486 703.691 C 6016.768 714.553 6036.822 722.156 6037.935 719.983 C 6039.049 717.811 6035.708 656.987 6029.023 584.214 C 6016.768 440.842 6020.11 418.033 6053.532 418.033 C 6072.472 418.033 6075.813 428.894 6082.498 511.442 C 6088.068 573.353 6086.955 613.54 6078.042 630.919 C 6071.357 646.125 6065.787 661.331 6065.787 665.676 C 6065.787 677.623 6132.631 714.553 6140.43 708.036 C 6143.772 704.778 6141.544 634.178 6134.86 551.629 C 6128.175 450.617 6128.175 397.396 6135.974 387.62 C 6143.772 377.845 6143.772 370.242 6134.86 361.553 C 6115.92 343.087 5834.06 368.069 5811.779 389.793 C 5799.525 401.74 5789.497 402.827 5769.444 394.137 C 5750.505 385.447 5713.741 385.447 5641.326 394.137 L 5539.946 406.085 L 5483.128 364.811 C 5410.714 312.676 5381.747 298.555 5353.896 298.555 C 5323.816 298.555 5312.675 318.106 5338.299 328.967 C 5382.862 346.346 5453.048 389.793 5453.048 399.567 C 5453.048 406.085 5439.679 426.722 5424.083 447.358 C 5408.485 466.909 5397.345 491.891 5399.572 501.667 C 5402.915 519.045 5525.462 612.454 5545.516 613.54 C 5549.972 613.54 5553.315 601.593 5553.315 586.387 C 5553.315 571.18 5558.885 537.509 5566.684 510.356 C 5577.824 470.167 5584.509 461.478 5603.448 463.651 C 5621.273 465.823 5626.843 478.858 5634.642 532.078 C 5639.098 567.922 5641.326 624.402 5637.984 656.987 C 5632.413 713.467 5633.528 717.811 5662.493 735.19 C 5702.6 757.999 5709.285 757.999 5709.285 735.19 Z M 7468.403 600.507 C 7477.315 513.614 7489.569 446.273 7499.597 429.98 C 7520.763 397.396 7508.509 388.707 7427.181 378.931 C 7372.592 372.414 7363.679 366.983 7312.433 309.417 C 7257.843 247.506 7203.253 213.835 7180.972 226.869 C 7175.401 231.214 7194.34 256.195 7225.534 284.435 C 7255.615 311.589 7280.125 338.743 7280.125 344.174 C 7280.125 349.605 7262.3 368.069 7241.132 386.534 C 7219.964 404.998 7202.139 427.807 7202.139 436.497 C 7202.139 445.187 7228.877 479.943 7261.185 512.527 L 7320.231 572.267 L 7353.653 508.183 C 7377.048 465.823 7395.987 444.1 7412.699 441.927 C 7439.436 437.583 7439.436 437.583 7424.954 545.113 C 7419.384 588.558 7406.015 639.609 7395.987 658.073 C 7379.277 690.658 7379.277 692.829 7409.356 723.242 C 7426.067 739.534 7442.779 751.482 7447.235 749.31 C 7451.691 747.138 7460.604 679.796 7468.403 600.507 Z M 7965.278 673.279 C 7958.593 635.263 7963.05 623.316 7997.586 578.783 C 8019.867 550.543 8044.377 529.907 8052.175 533.165 C 8058.86 535.338 8074.457 552.716 8084.483 571.18 C 8095.624 589.645 8110.107 600.507 8116.792 597.248 C 8123.476 592.903 8136.845 600.507 8145.757 613.54 L 8162.469 637.436 L 8203.689 600.507 C 8231.541 575.525 8235.997 573.353 8217.058 593.989 C 8192.548 621.143 8191.434 626.574 8204.803 651.556 L 8220.4 679.796 L 8281.674 616.798 C 8326.236 571.18 8340.72 550.543 8332.921 540.767 C 8321.78 527.734 8200.347 498.407 7998.7 460.393 C 7867.24 436.497 7857.214 435.411 7860.555 453.876 C 7861.67 460.393 7859.441 479.943 7854.985 496.236 C 7848.301 517.958 7851.642 535.338 7868.354 561.405 C 7883.951 585.3 7888.408 602.678 7881.723 613.54 C 7876.152 623.316 7876.152 634.178 7883.951 642.867 C 7891.749 652.642 7887.293 660.245 7866.126 668.934 C 7831.59 684.14 7829.361 701.519 7857.214 725.414 C 7872.81 739.534 7880.609 740.62 7890.635 730.845 C 7900.662 721.07 7908.46 722.156 7922.943 736.276 C 7941.882 754.74 7944.111 754.74 7957.479 736.276 C 7966.392 724.329 7968.62 701.519 7965.278 673.279 Z M 4132.874 688.485 C 4138.445 673.279 4133.989 659.159 4122.848 647.211 C 4105.022 630.919 4102.795 632.005 4082.741 656.987 C 4062.688 681.969 4062.688 685.227 4079.399 698.26 C 4106.136 717.811 4125.076 714.553 4132.874 688.485 Z M 6911.367 573.353 L 6912.481 472.34 L 7001.606 472.34 C 7050.625 472.34 7090.732 467.996 7090.732 462.565 C 7090.732 458.22 7104.101 435.411 7119.698 412.602 C 7135.295 389.793 7143.094 366.983 7138.637 362.638 C 7133.067 357.207 7061.767 349.605 6979.325 346.346 C 6838.952 339.829 6826.697 337.657 6798.846 311.589 L 6767.652 284.435 L 6745.37 312.676 C 6714.176 350.691 6669.613 351.777 6633.963 314.847 C 6601.655 281.177 6596.085 281.177 6580.488 313.762 C 6572.69 332.226 6559.321 339.829 6542.61 339.829 C 6528.127 338.743 6473.537 338.743 6421.176 339.829 L 6324.252 342.002 L 6319.795 382.189 C 6315.339 413.687 6320.909 428.894 6346.533 457.134 C 6366.586 478.858 6375.498 498.407 6371.042 509.269 C 6362.13 533.165 6398.895 560.318 6427.86 551.629 C 6446.799 546.198 6447.914 547.285 6435.659 562.491 C 6423.404 576.611 6415.605 577.698 6400.008 567.922 C 6376.613 553.802 6344.304 571.18 6344.304 598.334 C 6344.304 621.143 6389.982 640.694 6401.122 623.316 C 6408.921 611.368 6414.491 610.282 6432.316 621.143 C 6466.853 641.78 6485.792 612.454 6469.08 565.749 C 6450.141 516.873 6452.37 501.667 6480.222 445.187 C 6499.161 407.171 6509.187 397.396 6524.785 402.827 C 6537.04 406.085 6558.206 400.654 6573.804 390.878 C 6601.655 373.5 6601.655 373.5 6590.514 395.223 C 6572.69 426.722 6576.031 466.909 6598.313 485.374 C 6632.849 514.7 6643.989 516.873 6641.762 496.236 C 6639.533 457.134 6668.5 407.171 6695.237 407.171 C 6708.606 407.171 6728.659 397.396 6739.8 385.447 C 6766.538 356.122 6773.222 364.811 6753.169 403.913 C 6734.23 438.669 6744.256 475.598 6775.45 491.891 C 6793.276 501.667 6798.846 496.236 6816.671 454.962 C 6827.812 427.807 6844.522 407.171 6853.435 407.171 C 6867.918 407.171 6870.146 422.377 6865.69 503.838 C 6862.348 566.836 6855.664 609.196 6843.409 625.488 C 6826.697 650.469 6827.812 652.642 6861.234 680.882 C 6905.797 717.811 6910.253 706.95 6911.367 573.353 Z M 5294.85 622.229 C 5295.964 602.678 5305.99 552.716 5318.245 511.442 L 5340.527 437.583 L 5291.508 444.1 C 5251.401 450.617 5239.147 448.445 5220.207 429.98 C 5205.724 415.86 5182.329 407.171 5161.162 407.171 C 5127.74 407.171 5126.625 407.171 5146.679 428.894 C 5164.504 447.358 5164.504 454.962 5152.249 499.494 C 5141.109 539.682 5141.109 551.629 5153.363 565.749 C 5167.847 583.128 5273.683 654.814 5288.165 655.9 C 5291.508 656.987 5294.85 640.694 5294.85 622.229 Z M 6776.564 567.922 C 6792.162 552.716 6794.389 519.045 6778.793 510.356 C 6764.309 501.667 6723.089 524.476 6723.089 540.767 C 6723.089 554.888 6744.256 580.956 6756.512 580.956 C 6759.853 580.956 6768.765 575.525 6776.564 567.922 Z M 6587.173 285.522 C 6596.085 276.833 6603.883 276.833 6617.252 287.694 C 6638.419 303.986 6667.386 285.522 6667.386 254.023 C 6667.386 227.955 6650.674 219.266 6625.05 232.3 C 6610.568 239.903 6600.541 239.903 6591.629 231.214 C 6582.716 222.524 6571.575 224.697 6550.408 237.731 C 6521.442 256.195 6521.442 257.282 6540.381 277.918 C 6562.662 301.814 6569.347 302.9 6587.173 285.522 Z" style="fill: rgb(41, 22, 111);"/>
    <path d="M 2681.24 2199.326 C 2672.328 2185.206 2672.328 2177.604 2679.011 2177.604 C 2685.696 2177.604 2693.495 2185.206 2697.951 2193.896 C 2707.978 2219.964 2696.837 2223.222 2681.24 2199.326 Z" style=""/>
    <path d="M 2808.244 1692.092 C 2801.56 1676.886 2802.674 1675.8 2813.815 1685.575 C 2821.613 1693.179 2824.955 1701.868 2821.613 1705.126 C 2818.271 1708.385 2811.586 1702.954 2808.244 1692.092 Z" style=""/>
    <path d="M 2862.833 1645.388 C 2858.378 1632.354 2857.263 1619.319 2860.605 1616.061 C 2863.948 1613.89 2869.518 1621.492 2873.974 1634.526 C 2878.431 1647.56 2879.544 1660.594 2876.202 1663.852 C 2872.861 1666.025 2867.289 1658.421 2862.833 1645.388 Z" style=""/>
    <path d="M 3625.972 1235.907 C 3625.972 1221.787 3631.542 1210.925 3637.113 1210.925 C 3651.596 1210.925 3651.596 1222.874 3637.113 1243.51 C 3628.201 1256.544 3625.972 1255.458 3625.972 1235.907 Z" style=""/>
    <path d="M 3549.101 1106.654 C 3549.101 1094.707 3552.444 1091.449 3555.785 1100.138 C 3559.128 1107.741 3558.014 1117.516 3554.671 1120.774 C 3551.329 1125.119 3547.988 1118.603 3549.101 1106.654 Z" style=""/>
    <path d="M 3895.577 950.249 C 3895.577 929.612 3897.806 920.922 3901.148 931.783 C 3903.376 941.559 3903.376 958.938 3901.148 969.799 C 3897.806 979.574 3895.577 970.885 3895.577 950.249 Z" style=""/>
    <path d="M 7918.487 671.107 C 7928.513 661.331 7940.768 656.987 7945.224 661.331 C 7949.681 665.676 7946.338 673.279 7937.426 678.709 C 7909.574 696.089 7898.434 690.658 7918.487 671.107 Z" style=""/>
    <path d="M 8134.617 569.008 C 8142.415 561.405 8151.327 558.147 8154.67 561.405 C 8158.012 564.663 8152.442 571.18 8141.301 574.438 C 8125.705 580.956 8124.59 579.869 8134.617 569.008 Z" style=""/>
    <path d="M 7926.285 544.027 C 7926.285 541.854 7935.198 533.165 7946.338 525.562 C 7963.05 511.442 7964.163 512.527 7949.681 529.907 C 7935.198 547.285 7926.285 552.716 7926.285 544.027 Z" style=""/>
    <path d="M 6400.008 434.325 C 6400.008 428.894 6405.579 415.86 6411.149 407.171 C 6416.72 398.482 6422.29 396.309 6422.29 401.74 C 6422.29 408.257 6416.72 420.205 6411.149 428.894 C 6405.579 437.583 6400.008 440.842 6400.008 434.325 Z" style=""/>
    <path d="M 10409.549 2665.287 C 10313.739 2653.34 10196.761 2614.238 10102.065 2563.189 C 9990.658 2502.364 9838.031 2349.216 9778.985 2237.342 C 9663.122 2019.025 9647.525 1784.415 9735.536 1558.495 C 9921.586 1076.243 10502.018 881.821 10965.47 1146.843 C 11046.797 1194.634 11196.084 1340.178 11245.103 1419.468 C 11445.635 1752.917 11394.388 2162.397 11120.327 2430.678 C 10936.505 2609.893 10664.672 2700.044 10409.549 2665.287 Z" style="fill: rgb(41, 22, 111);"/>
    <path d="M 27843.115 4449.558 C 27607.45 3372.834 27242.824 1746.875 27234.096 1716.607 C 27225.367 1673.364 27303.923 1664.715 27609.414 1673.364 L 27859.807 2251.476 L 28234.943 2758.736 C 28365.868 3346.827 28454.934 3438.336 28466.572 3442.659 C 28478.21 3446.985 28644.285 3883.442 28783.938 3286.703 L 29108.247 2541.681 L 29416.176 1673.364 L 29803.133 1660.392 L 29975.389 3489.524 C 30196.507 4497.063 30328.978 4560.749 30349.345 4664.529 L 30564.697 5258.543 L 30303.556 5686.216 L 29933.166 5502.928 L 29686.755 4618.14 C 29558.739 4034.374 29398.485 3835.946 29383.937 3827.299 C 29366.48 3822.974 28991.525 3954.794 28880.966 4426.131 C 28770.407 4893.145 28968.123 5335.956 28939.029 5461.356 L 28883.749 5686.216 L 28387.544 5777.86 C 28397.652 5789.164 28108.982 5712.554 27989.841 5579.298 L 27843.115 4449.558 Z" style="fill: rgb(0, 146, 65);"/>
    <path d="M 36173.514 5584.211 C 36606.78 5550.19 35653.763 3704.952 35873.181 2432.808 C 35927.644 2117.039 35806.662 1642.826 35806.662 1630.491 C 35806.662 1614.046 35938.988 1643.389 36087.043 1643.389 L 36400.114 1653.809 L 36257.281 2591.231 L 36287.641 3038.952 L 36508.914 3372.366 L 37005.344 3372.366 L 36991.707 3244.918 C 36983.916 3179.138 37081.416 2658.865 37024.922 2297.076 L 36989.003 1622.551 L 37381.092 1580.874 L 37657.719 1580.874 L 37698.53 3055.8 C 37803.727 3738.267 37751.458 4597.515 37809.902 4967.526 L 37855.417 5414.743 L 37636.522 5633.545 L 37292.567 5518.935 L 37258.595 4955.191 L 37155.345 4276.838 L 36857.149 3974.681 C 36615.587 3974.681 36533.909 4289.172 36533.909 4330.285 C 36533.909 4359.063 36578.715 4659.183 36631.313 4996.304 C 36685.859 5333.425 36901.909 5637.939 36901.909 5642.051 C 36901.909 5650.274 36605.988 5633.545 36455.985 5633.545 C 36253.385 5633.545 36008.947 5597.133 36173.514 5584.211 Z" style="fill: rgb(0, 146, 65);"/>
  </g>
  <path d="M 152.116 14.965 C 149.316 18.135 150.816 21.407 155.816 23.145 C 159.316 24.372 160.116 25.19 160.116 27.235 C 160.116 29.28 158.684 28.193 156.284 28.397 C 154.384 28.704 154.186 29.327 153.286 28.1 C 152.586 27.077 151.316 27.235 150.916 27.644 C 149.916 28.666 154.316 32.347 156.516 32.347 C 159.716 32.347 162.716 29.28 162.416 26.417 C 162.216 24.27 162.047 23.066 158.447 21.737 C 154.847 20.408 154.04 19.685 154.04 17.742 C 154.04 15.799 155.194 16.508 156.94 15.926 C 158.756 15.32 159.216 15.374 159.816 16.396 C 160.316 17.317 161.216 17.828 161.716 17.419 C 163.416 16.396 159.516 12.92 156.616 12.92 C 155.116 12.92 153.116 13.84 152.116 14.965 Z" style="fill: rgb(0, 146, 65);"/>
</svg>